<?xml version="1.0" encoding="utf-8"?>
<!-- Generator: Adobe Illustrator 16.0.0, SVG Export Plug-In . SVG Version: 6.00 Build 0)  -->
<!DOCTYPE svg PUBLIC "-//W3C//DTD SVG 1.1//EN" "http://www.w3.org/Graphics/SVG/1.1/DTD/svg11.dtd">
<svg version="1.1" id="Layer_1" xmlns="http://www.w3.org/2000/svg" xmlns:xlink="http://www.w3.org/1999/xlink" x="0px" y="0px"
	 width="533px" height="215.25px" viewBox="0 0 533 215.25" enable-background="new 0 0 533 215.25" xml:space="preserve">
<g id="Rectangle_4_copy_6_1_" enable-background="new    ">
	<g id="Rectangle_4_copy_6">
		<g>
			<rect x="147" y="37" fill="#FFFFFF" width="236" height="142"/>
		</g>
	</g>
</g>
<rect x="148" y="35.5" fill="#FFFFFF" stroke="#B7B7B7" stroke-miterlimit="10" width="234.125" height="145.125"/>
<g id="Vector_Smart_Object_xA0_Image_3_">
	<rect x="255.085" y="111.346" fill="#A2B5C7" width="7.641" height="7.641"/>
	<rect x="265.14" y="111.346" fill="#A2B5C7" width="7.641" height="7.641"/>
	<rect x="255.085" y="101.445" fill="#A2B5C7" width="7.641" height="7.641"/>
	<rect x="265.14" y="101.445" fill="#A2B5C7" width="7.641" height="7.641"/>
	<polygon fill="#328CC1" points="263.922,57.75 244.138,77.532 232.543,77.532 232.543,89.127 211.584,110.088 263.922,162.427 
		339.063,87.801 330.429,79.166 298.59,110.486 298.55,110.445 263.922,145.077 228.933,110.088 263.922,75.099 290.395,101.518 
		299.07,92.844 	"/>
</g>
<g id="Shape_2_1_" enable-background="new    ">
	<g id="Shape_2">
		<g>
			<rect x="3" y="78" fill="#D9B427" width="135" height="1"/>
		</g>
	</g>
</g>
<g id="Shape_3_1_" enable-background="new    ">
	<g id="Shape_3">
		<g>
			<rect x="189" y="10" fill="#D9B427" width="1" height="26"/>
		</g>
	</g>
</g>
<g id="Shape_2_copy_1_" enable-background="new    ">
	<g id="Shape_2_copy">
		<g>
			<rect x="392" y="78" fill="#D9B427" width="135" height="1"/>
		</g>
	</g>
</g>
<g id="Shape_2_copy_2_1_" enable-background="new    ">
	<g id="Shape_2_copy_2">
		<g>
			
				<rect x="374.003" y="173.994" transform="matrix(0.866 -0.5 0.5 0.866 -26.3546 250.6345)" fill="#D9B427" width="160.992" height="0.999"/>
		</g>
	</g>
</g>
<g id="Shape_2_copy_3_1_" enable-background="new    ">
	<g id="Shape_2_copy_3">
		<g>
			
				<rect x="76" y="94.01" transform="matrix(0.5004 -0.8658 0.8658 0.5004 -112.8637 153.414)" fill="#D9B427" width="0.998" height="160.985"/>
		</g>
	</g>
</g>
<g id="Shape_3_copy_1_" enable-background="new    ">
	<g id="Shape_3_copy">
		<g>
			<rect x="341" y="10" fill="#D9B427" width="1" height="26"/>
		</g>
	</g>
</g>
<g id="_xF0D8__5_">
	<rect x="176.109" y="-7.867" fill="none" width="27.119" height="28.867"/>
	<g enable-background="new    ">
		<path fill="#D9B427" d="M195.673,9.823h-12.004c-0.469,0-0.857-0.389-0.857-0.857c0-0.228,0.094-0.442,0.254-0.603l6.002-6.002
			c0.161-0.161,0.375-0.255,0.603-0.255s0.442,0.094,0.603,0.255l6.002,6.002c0.161,0.16,0.254,0.375,0.254,0.603
			C196.531,9.435,196.142,9.823,195.673,9.823z"/>
	</g>
</g>
<rect x="127.205" y="65.645" fill="none" width="29" height="27"/>
<g enable-background="new    ">
	<path fill="#D9B427" d="M138.434,85.121V73.171c0-0.467,0.39-0.854,0.861-0.854c0.229,0,0.444,0.093,0.605,0.253l6.029,5.975
		c0.162,0.16,0.256,0.374,0.256,0.6s-0.094,0.44-0.256,0.6l-6.029,5.975c-0.161,0.16-0.376,0.253-0.605,0.253
		C138.824,85.974,138.434,85.587,138.434,85.121z"/>
</g>
<g>
	<path fill="#D9B427" d="M152.394,78.737v0.649h-2.469v-0.649H152.394z"/>
	<path fill="#D9B427" d="M155.463,78.737v0.649h-2.469v-0.649H155.463z"/>
	<path fill="#D9B427" d="M158.533,78.737v0.649h-2.469v-0.649H158.533z"/>
	<path fill="#D9B427" d="M161.604,78.737v0.649h-2.469v-0.649H161.604z"/>
	<path fill="#D9B427" d="M164.673,78.737v0.649h-2.469v-0.649H164.673z"/>
	<path fill="#D9B427" d="M167.743,78.737v0.649h-2.469v-0.649H167.743z"/>
	<path fill="#D9B427" d="M170.813,78.737v0.649h-2.469v-0.649H170.813z"/>
	<path fill="#D9B427" d="M173.883,78.737v0.649h-2.469v-0.649H173.883z"/>
	<path fill="#D9B427" d="M176.953,78.737v0.649h-2.469v-0.649H176.953z"/>
	<path fill="#D9B427" d="M180.023,78.737v0.649h-2.469v-0.649H180.023z"/>
	<path fill="#D9B427" d="M183.093,78.737v0.649h-2.469v-0.649H183.093z"/>
	<path fill="#D9B427" d="M186.163,78.737v0.649h-2.469v-0.649H186.163z"/>
	<path fill="#D9B427" d="M189.232,78.737v0.649h-2.469v-0.649H189.232z"/>
</g>
<g>
	<path fill="#D9B427" d="M189.126,76.907h0.649v2.469h-0.649V76.907z"/>
	<path fill="#D9B427" d="M189.126,73.837h0.649v2.469h-0.649V73.837z"/>
	<path fill="#D9B427" d="M189.126,70.767h0.649v2.469h-0.649V70.767z"/>
	<path fill="#D9B427" d="M189.126,67.697h0.649v2.469h-0.649V67.697z"/>
	<path fill="#D9B427" d="M189.126,64.627h0.649v2.469h-0.649V64.627z"/>
	<path fill="#D9B427" d="M189.126,61.557h0.649v2.469h-0.649V61.557z"/>
	<path fill="#D9B427" d="M189.126,58.487h0.649v2.469h-0.649V58.487z"/>
	<path fill="#D9B427" d="M189.126,55.417h0.649v2.469h-0.649V55.417z"/>
	<path fill="#D9B427" d="M189.126,52.347h0.649v2.469h-0.649V52.347z"/>
	<path fill="#D9B427" d="M189.126,49.277h0.649v2.469h-0.649V49.277z"/>
	<path fill="#D9B427" d="M189.126,46.208h0.649v2.469h-0.649V46.208z"/>
	<path fill="#D9B427" d="M189.126,43.138h0.649v2.469h-0.649V43.138z"/>
	<path fill="#D9B427" d="M189.126,40.068h0.649v2.469h-0.649V40.068z"/>
</g>
<g>
	<g>
		<path fill="#D9B427" d="M341.584,41.458h-0.648v-2.469h0.648V41.458z"/>
		<path fill="#D9B427" d="M341.584,44.528h-0.648v-2.469h0.648V44.528z"/>
		<path fill="#D9B427" d="M341.584,47.598h-0.648v-2.469h0.648V47.598z"/>
		<path fill="#D9B427" d="M341.584,50.668h-0.648v-2.469h0.648V50.668z"/>
		<path fill="#D9B427" d="M341.584,53.738h-0.648v-2.469h0.648V53.738z"/>
		<path fill="#D9B427" d="M341.584,56.808h-0.648v-2.469h0.648V56.808z"/>
		<path fill="#D9B427" d="M341.584,59.877h-0.648v-2.469h0.648V59.877z"/>
		<path fill="#D9B427" d="M341.584,62.947h-0.648v-2.469h0.648V62.947z"/>
		<path fill="#D9B427" d="M341.584,66.018h-0.648v-2.469h0.648V66.018z"/>
		<path fill="#D9B427" d="M341.584,69.087h-0.648v-2.469h0.648V69.087z"/>
		<path fill="#D9B427" d="M341.584,72.157h-0.648v-2.469h0.648V72.157z"/>
		<path fill="#D9B427" d="M341.584,75.227h-0.648v-2.469h0.648V75.227z"/>
		<path fill="#D9B427" d="M341.584,78.297h-0.648v-2.469h0.648V78.297z"/>
	</g>
	<g>
		<path fill="#D9B427" d="M343.415,78.191v0.649h-2.469v-0.649H343.415z"/>
		<path fill="#D9B427" d="M346.484,78.191v0.649h-2.471v-0.649H346.484z"/>
		<path fill="#D9B427" d="M349.555,78.191v0.649h-2.469v-0.649H349.555z"/>
		<path fill="#D9B427" d="M352.625,78.191v0.649h-2.469v-0.649H352.625z"/>
		<path fill="#D9B427" d="M355.695,78.191v0.649h-2.471v-0.649H355.695z"/>
		<path fill="#D9B427" d="M358.765,78.191v0.649h-2.469v-0.649H358.765z"/>
		<path fill="#D9B427" d="M361.834,78.191v0.649h-2.469v-0.649H361.834z"/>
		<path fill="#D9B427" d="M364.904,78.191v0.649h-2.471v-0.649H364.904z"/>
		<path fill="#D9B427" d="M367.975,78.191v0.649h-2.469v-0.649H367.975z"/>
		<path fill="#D9B427" d="M371.045,78.191v0.649h-2.469v-0.649H371.045z"/>
		<path fill="#D9B427" d="M374.114,78.191v0.649h-2.471v-0.649H374.114z"/>
		<path fill="#D9B427" d="M377.184,78.191v0.649h-2.469v-0.649H377.184z"/>
		<path fill="#D9B427" d="M380.254,78.191v0.649h-2.469v-0.649H380.254z"/>
	</g>
</g>
<g id="_xF0D8__3_">
	
		<rect x="-8.425" y="118.062" transform="matrix(-0.6092 0.793 -0.793 -0.6092 113.2903 209.2935)" fill="none" width="27" height="29"/>
	<g enable-background="new    ">
		<path fill="#D9B427" d="M11.311,129.815l-7.28,9.476c-0.284,0.37-0.829,0.438-1.203,0.152c-0.181-0.14-0.295-0.345-0.325-0.57
			l-1.142-8.41c-0.031-0.227,0.024-0.452,0.162-0.633c0.139-0.18,0.343-0.291,0.569-0.319l8.421-1.064
			c0.226-0.028,0.453,0.028,0.634,0.167C11.521,128.9,11.595,129.445,11.311,129.815z"/>
	</g>
</g>
<g id="_xF0D8__2_">
	<rect x="328.109" y="-7.867" fill="none" width="27.117" height="28.867"/>
	<g enable-background="new    ">
		<path fill="#D9B427" d="M347.673,9.823h-12.004c-0.469,0-0.857-0.389-0.857-0.857c0-0.228,0.094-0.442,0.255-0.603l6.002-6.002
			c0.16-0.161,0.375-0.255,0.603-0.255s0.442,0.094,0.603,0.255l6.002,6.002c0.161,0.16,0.255,0.375,0.255,0.603
			C348.53,9.435,348.142,9.823,347.673,9.823z"/>
	</g>
</g>
<g id="_xF0D8__1_">
	<rect x="374" y="65" fill="none" width="29" height="27"/>
	<g enable-background="new    ">
		<path fill="#D9B427" d="M391.771,72.524v11.949c0,0.467-0.391,0.854-0.861,0.854c-0.229,0-0.444-0.093-0.605-0.253l-6.029-5.975
			c-0.162-0.16-0.256-0.374-0.256-0.6s0.094-0.44,0.256-0.6l6.029-5.975c0.161-0.16,0.377-0.253,0.605-0.253
			C391.381,71.67,391.771,72.057,391.771,72.524z"/>
	</g>
</g>
<g id="_xF0D8_">
	
		<rect x="513.485" y="117.864" transform="matrix(-0.566 -0.8244 0.8244 -0.566 716.132 641.7339)" fill="none" width="27.001" height="29"/>
	<g enable-background="new    ">
		<path fill="#D9B427" d="M527.686,139.139l-6.763-9.852c-0.265-0.385-0.161-0.924,0.227-1.19c0.188-0.13,0.419-0.175,0.643-0.135
			l8.352,1.513c0.225,0.041,0.423,0.164,0.551,0.351c0.129,0.187,0.172,0.417,0.129,0.64l-1.588,8.339
			c-0.044,0.222-0.168,0.421-0.356,0.551C528.49,139.621,527.95,139.523,527.686,139.139z"/>
	</g>
</g>
<g id="Vector_Smart_Object_xA0_Image_1_">
</g>
<g id="Vector_Smart_Object_copy_xA0_Image_1_">
</g>
<g id="Ellipse_3_1_" enable-background="new    ">
	<g id="Ellipse_3">
		<g>
			<ellipse fill="#D9B427" cx="69.094" cy="78.906" rx="11.219" ry="10.906"/>
		</g>
	</g>
</g>
<g id="_x31__2_">
	<g>
		<path fill="#FFFFFF" d="M67.604,83.009v-7.532h-1.827v-2.662h5.299v10.194H67.604z"/>
	</g>
</g>
<g id="Ellipse_3_copy_4_1_" enable-background="new    ">
	<g id="Ellipse_3_copy_4">
		<g>
			<ellipse fill="#D9B427" cx="78.094" cy="174.906" rx="11.219" ry="10.906"/>
		</g>
	</g>
</g>
<g id="_x31__1_">
	<g>
		<path fill="#FFFFFF" d="M76.604,179.01v-7.531h-1.827v-2.662h5.299v10.193H76.604L76.604,179.01z"/>
	</g>
</g>
<g id="Ellipse_3_copy_5_1_" enable-background="new    ">
	<g id="Ellipse_3_copy_5">
		<g>
			<ellipse fill="#D9B427" cx="436.094" cy="184.906" rx="11.219" ry="10.906"/>
		</g>
	</g>
</g>
<g id="_x32__2_">
	<g>
		<path fill="#FFFFFF" d="M438.208,179.021c0.572,0.229,1.024,0.556,1.355,0.973c0.33,0.416,0.495,0.896,0.495,1.441
			c0,0.554-0.178,1.106-0.531,1.664c-0.355,0.557-0.857,1.147-1.506,1.776l-1.588,1.541h3.771v2.591h-8.188V186.9l3.642-3.678
			c0.22-0.23,0.399-0.466,0.545-0.699c0.144-0.233,0.216-0.433,0.216-0.592c0-0.359-0.229-0.539-0.688-0.539
			c-0.392,0-0.832,0.114-1.326,0.348c-0.495,0.232-1.001,0.552-1.519,0.958l-1.286-2.429c1.59-1.063,3.146-1.598,4.672-1.598
			C436.991,178.674,437.635,178.79,438.208,179.021z"/>
	</g>
</g>
<g id="Ellipse_3_copy_6_1_" enable-background="new    ">
	<g id="Ellipse_3_copy_6">
		<g>
			<ellipse fill="#D9B427" cx="465.094" cy="167.906" rx="11.219" ry="10.906"/>
		</g>
	</g>
</g>
<g id="_x33_">
	<g>
		<path fill="#FFFFFF" d="M468.396,166.923c0.419,0.495,0.628,1.109,0.628,1.843c0,0.658-0.175,1.245-0.521,1.762
			s-0.836,0.914-1.47,1.199c-0.633,0.283-1.369,0.426-2.207,0.426c-0.779,0-1.554-0.123-2.32-0.368
			c-0.768-0.246-1.405-0.572-1.912-0.979l1.374-2.557c0.8,0.951,1.657,1.425,2.573,1.42c0.717,0,1.077-0.296,1.082-0.889
			c0-0.59-0.36-0.887-1.082-0.887h-1.9v-1.754l1.995-1.847h-3.493v-2.449h7.396v1.896l-2.258,2.107l0.443,0.102
			C467.421,166.104,467.976,166.43,468.396,166.923z"/>
	</g>
</g>
<g id="Ellipse_3_copy_1_" enable-background="new    ">
	<g id="Ellipse_3_copy">
		<g>
			<ellipse fill="#D9B427" cx="462.094" cy="78.906" rx="11.219" ry="10.906"/>
		</g>
	</g>
</g>
<g id="_x32__1_">
	<g>
		<path fill="#FFFFFF" d="M464.208,73.021c0.572,0.232,1.024,0.556,1.355,0.973s0.495,0.897,0.495,1.441
			c0,0.554-0.178,1.109-0.531,1.665c-0.355,0.556-0.857,1.149-1.506,1.778l-1.588,1.541h3.771v2.591h-8.188v-2.108l3.642-3.677
			c0.22-0.232,0.399-0.465,0.545-0.699c0.144-0.234,0.216-0.432,0.216-0.593c0-0.36-0.229-0.54-0.688-0.54
			c-0.392,0-0.832,0.116-1.326,0.348c-0.495,0.232-1.001,0.551-1.519,0.958l-1.286-2.428c1.59-1.065,3.146-1.598,4.672-1.598
			C462.991,72.673,463.635,72.789,464.208,73.021z"/>
	</g>
</g>
<g id="Ellipse_3_copy_2_1_" enable-background="new    ">
	<g id="Ellipse_3_copy_2">
		<g>
			<ellipse fill="#D9B427" cx="341.094" cy="35.906" rx="11.219" ry="10.906"/>
		</g>
	</g>
</g>
<g id="_x32_">
	<g>
		<path fill="#FFFFFF" d="M343.208,30.021c0.572,0.232,1.024,0.556,1.355,0.973s0.495,0.897,0.495,1.441
			c0,0.554-0.178,1.109-0.531,1.665c-0.355,0.556-0.857,1.149-1.506,1.778l-1.588,1.541h3.771v2.591h-8.188v-2.108l3.642-3.677
			c0.22-0.232,0.399-0.465,0.545-0.699c0.144-0.234,0.216-0.432,0.216-0.593c0-0.36-0.229-0.54-0.688-0.54
			c-0.392,0-0.832,0.116-1.326,0.348c-0.495,0.232-1.001,0.551-1.519,0.958l-1.286-2.428c1.59-1.065,3.146-1.598,4.672-1.598
			C341.991,29.673,342.635,29.789,343.208,30.021z"/>
	</g>
</g>
<g id="Ellipse_3_copy_3_1_" enable-background="new    ">
	<g id="Ellipse_3_copy_3">
		<g>
			<ellipse fill="#D9B427" cx="190.094" cy="35.906" rx="11.219" ry="10.906"/>
		</g>
	</g>
</g>
<g id="_x31_">
	<g>
		<path fill="#FFFFFF" d="M188.604,40.009v-7.532h-1.827v-2.662h5.299v10.194H188.604z"/>
	</g>
</g>
</svg>
