<?xml version="1.0" encoding="utf-8"?>
<!-- Generator: Adobe Illustrator 16.0.0, SVG Export Plug-In . SVG Version: 6.00 Build 0)  -->
<!DOCTYPE svg PUBLIC "-//W3C//DTD SVG 1.1//EN" "http://www.w3.org/Graphics/SVG/1.1/DTD/svg11.dtd">
<svg version="1.1" id="Layer_1" xmlns="http://www.w3.org/2000/svg" xmlns:xlink="http://www.w3.org/1999/xlink" x="0px" y="0px"
	 width="384.449px" height="114.816px" viewBox="0 0 384.449 114.816" enable-background="new 0 0 384.449 114.816"
	 xml:space="preserve">
<rect x="47.207" y="58.161" fill="#EEEEEE" width="8.292" height="8.292"/>
<rect x="58.118" y="58.161" fill="#EEEEEE" width="8.292" height="8.292"/>
<rect x="47.207" y="47.418" fill="#EEEEEE" width="8.292" height="8.292"/>
<rect x="58.118" y="47.418" fill="#EEEEEE" width="8.292" height="8.292"/>
<g>
	<path fill="#EEEEEE" d="M350.402,111.426c0.299,0.3,0.449,0.669,0.449,1.106c0,0.438-0.15,0.813-0.449,1.124
		c-0.301,0.312-0.67,0.467-1.107,0.467c-0.438,0-0.802-0.149-1.09-0.448c-0.288-0.3-0.433-0.682-0.433-1.143
		c0-0.438,0.145-0.807,0.433-1.106c0.288-0.299,0.651-0.45,1.09-0.45C349.732,110.976,350.102,111.127,350.402,111.426"/>
	<rect x="354.725" y="89.667" fill="#EEEEEE" width="2.388" height="24.18"/>
	<path fill="#EEEEEE" d="M378.17,91.104c1.926,1.096,3.453,2.577,4.583,4.444c1.131,1.868,1.695,3.922,1.695,6.157
		c0,2.237-0.564,4.301-1.695,6.192c-1.13,1.891-2.657,3.39-4.583,4.497c-1.926,1.105-4.042,1.66-6.348,1.66s-4.422-0.555-6.347-1.66
		c-1.925-1.107-3.454-2.606-4.584-4.497c-1.129-1.892-1.694-3.955-1.694-6.192c0-2.235,0.565-4.289,1.694-6.157
		c1.13-1.867,2.659-3.349,4.584-4.444c1.925-1.095,4.041-1.644,6.347-1.644S376.244,90.009,378.17,91.104 M366.738,92.955
		c-1.569,0.899-2.813,2.122-3.736,3.667c-0.923,1.544-1.384,3.239-1.384,5.084c0,1.847,0.461,3.553,1.384,5.12
		c0.923,1.568,2.167,2.809,3.736,3.718c1.567,0.911,3.274,1.367,5.119,1.367c1.822,0,3.511-0.456,5.068-1.367
		c1.557-0.909,2.795-2.149,3.718-3.718c0.922-1.567,1.384-3.273,1.384-5.12c0-1.845-0.462-3.54-1.384-5.084
		c-0.923-1.545-2.161-2.768-3.718-3.667c-1.558-0.898-3.246-1.349-5.068-1.349C370.013,91.606,368.306,92.056,366.738,92.955"/>
	<path fill="#EEEEEE" d="M144.185,75.584c-2.259-1.226-4.492-1.837-6.701-1.837c-2.547,0-4.863,0.637-6.953,1.909
		c-2.089,1.273-3.735,3.026-4.935,5.26c-1.202,2.233-1.802,4.718-1.802,7.457c0,2.738,0.6,5.225,1.802,7.457
		c1.2,2.233,2.846,3.988,4.935,5.26c2.09,1.273,4.406,1.909,6.953,1.909c2.065,0,4.226-0.527,6.485-1.585
		c2.257-1.057,4.275-2.497,6.052-4.322l7.71,8.285c-2.738,2.882-5.993,5.177-9.763,6.881c-3.772,1.704-7.506,2.558-11.204,2.558
		c-4.996,0-9.511-1.152-13.546-3.458c-4.035-2.307-7.205-5.45-9.511-9.439c-2.305-3.985-3.459-8.453-3.459-13.4
		c0-4.9,1.177-9.319,3.531-13.258c2.353-3.938,5.584-7.036,9.691-9.295c4.107-2.257,8.706-3.386,13.798-3.386
		c3.747,0,7.445,0.78,11.096,2.341c3.65,1.563,6.748,3.687,9.295,6.377l-7.638,9.223C148.388,78.455,146.442,76.81,144.185,75.584"
		/>
	<path fill="#EEEEEE" d="M198.079,68.018c3.554,3.099,5.331,7.458,5.331,13.078c0,5.956-1.777,10.58-5.331,13.869
		c-3.557,3.292-8.551,4.938-14.987,4.938h-9.006v13.977H160.9V63.371h22.192C189.528,63.371,194.522,64.921,198.079,68.018
		 M188.676,87.365c1.465-1.346,2.198-3.289,2.198-5.836c0-2.449-0.733-4.334-2.198-5.656c-1.466-1.321-3.542-1.981-6.232-1.981
		h-8.358v15.49h8.358C185.134,89.381,187.21,88.709,188.676,87.365"/>
	<path fill="#EEEEEE" d="M236.426,113.879l-7.35-13.977h-0.288h-9.511v13.977h-13.186V63.371h22.696
		c6.677,0,11.853,1.551,15.527,4.648s5.512,7.458,5.512,13.077c0,3.796-0.77,7.074-2.306,9.835c-1.538,2.763-3.771,4.912-6.7,6.448
		l10.52,16.5H236.426z M219.277,89.381h9.583c2.689,0,4.768-0.672,6.232-2.017s2.196-3.289,2.196-5.836
		c0-2.449-0.731-4.335-2.196-5.656s-3.543-1.98-6.232-1.98h-9.583V89.381z"/>
	<path fill="#EEEEEE" d="M292.796,65.965c4.152,2.259,7.421,5.356,9.798,9.295c2.379,3.938,3.566,8.357,3.566,13.258
		c0,4.947-1.188,9.415-3.566,13.401c-2.377,3.987-5.646,7.133-9.798,9.438c-4.155,2.307-8.804,3.458-13.941,3.458
		c-5.141,0-9.789-1.14-13.944-3.422c-4.154-2.282-7.421-5.428-9.798-9.438c-2.378-4.012-3.566-8.49-3.566-13.438
		c0-4.9,1.188-9.32,3.566-13.258c2.377-3.938,5.644-7.036,9.798-9.295c4.155-2.257,8.804-3.386,13.944-3.386
		C283.992,62.58,288.641,63.708,292.796,65.965 M272.045,75.692c-2.139,1.298-3.831,3.087-5.08,5.368
		c-1.249,2.282-1.873,4.792-1.873,7.53c0,2.785,0.636,5.319,1.907,7.601c1.273,2.282,2.968,4.083,5.08,5.404
		c2.115,1.322,4.419,1.98,6.917,1.98s4.793-0.658,6.883-1.98c2.089-1.321,3.732-3.122,4.935-5.404
		c1.2-2.281,1.802-4.815,1.802-7.601c0-2.738-0.602-5.248-1.802-7.53c-1.202-2.281-2.846-4.07-4.935-5.368
		c-2.09-1.297-4.385-1.944-6.883-1.944S274.181,74.395,272.045,75.692"/>
	<path fill="#EEEEEE" d="M346.092,68.018c3.555,3.099,5.332,7.458,5.332,13.078c0,5.956-1.777,10.58-5.332,13.869
		c-3.555,3.292-8.549,4.938-14.985,4.938H322.1v13.977h-13.185V63.371h22.191C337.543,63.371,342.537,64.921,346.092,68.018
		 M336.69,87.365c1.464-1.346,2.196-3.289,2.196-5.836c0-2.449-0.732-4.334-2.196-5.656c-1.467-1.321-3.544-1.981-6.233-1.981H322.1
		v15.49h8.357C333.146,89.381,335.224,88.709,336.69,87.365"/>
	<polygon fill="#EEEEEE" points="128.968,23.24 94.418,57.23 94.375,57.188 56.797,94.765 18.827,56.797 56.797,18.829 
		85.525,47.498 94.939,38.083 56.797,0 35.329,21.468 22.746,21.468 22.746,34.051 0,56.797 56.797,113.593 138.339,32.611 	"/>
</g>
</svg>
